HIERARCHY
ROOT Hips
{
	OFFSET 0.000000 0.000000 0.000000
	CHANNELS 6 Xposition Yposition Zposition Yrotation Xrotation Zrotation
	JOINT Chest
	{
		OFFSET 0.000000 -0.009281 11.569106
		CHANNELS 3 Yrotation Xrotation Zrotation
		JOINT Chest2
		{
			OFFSET -0.000000 0.016865 9.269641
			CHANNELS 3 Yrotation Xrotation Zrotation
			JOINT Chest3
			{
				OFFSET -0.000000 0.000001 8.374491
				CHANNELS 3 Yrotation Xrotation Zrotation
				JOINT Chest4
				{
					OFFSET -0.000000 0.000001 8.374493
					CHANNELS 3 Yrotation Xrotation Zrotation
					JOINT Neck
					{
						OFFSET -0.000000 0.000002 12.152554
						CHANNELS 3 Yrotation Xrotation Zrotation
						JOINT Head
						{
							OFFSET -0.000000 0.040101 7.802319
							CHANNELS 3 Yrotation Xrotation Zrotation
							End Site
							{
								OFFSET -0.000000 0.020947 14.853096
							}
						}
					}
					JOINT RightCollar
					{
						OFFSET 2.894404 0.000001 6.791374
						CHANNELS 3 Yrotation Xrotation Zrotation
						JOINT RightShoulder
						{
							OFFSET 13.574684 0.000001 0.000000
							CHANNELS 3 Yrotation Xrotation Zrotation
							JOINT RightElbow
							{
								OFFSET 23.923903 0.000002 0.000000
								CHANNELS 3 Yrotation Xrotation Zrotation
								JOINT RightWrist
								{
									OFFSET 19.846718 0.012767 0.000000
									CHANNELS 3 Yrotation Xrotation Zrotation
									End Site
									{
										OFFSET 14.973145 0.000001 0.000000
									}
								}
							}
						}
					}
					JOINT LeftCollar
					{
						OFFSET -2.894404 0.000001 6.791374
						CHANNELS 3 Yrotation Xrotation Zrotation
						JOINT LeftShoulder
						{
							OFFSET -13.574684 -0.000001 0.000000
							CHANNELS 3 Yrotation Xrotation Zrotation
							JOINT LeftElbow
							{
								OFFSET -23.923903 -0.000002 0.000000
								CHANNELS 3 Yrotation Xrotation Zrotation
								JOINT LeftWrist
								{
									OFFSET -19.846718 0.012763 0.000000
									CHANNELS 3 Yrotation Xrotation Zrotation
									End Site
									{
										OFFSET -14.973145 -0.000001 0.000000
									}
								}
							}
						}
					}
				}
			}
		}
	}
	JOINT RightHip
	{
		OFFSET 9.469263 0.004643 0.045487
		CHANNELS 3 Yrotation Xrotation Zrotation
		JOINT RightKnee
		{
			OFFSET 0.000000 0.002661 -40.478676
			CHANNELS 3 Yrotation Xrotation Zrotation
			JOINT RightAnkle
			{
				OFFSET 0.000000 0.049106 -35.224068
				CHANNELS 3 Yrotation Xrotation Zrotation
				JOINT RightToe
				{
					OFFSET -0.000001 12.539529 -6.151390
					CHANNELS 3 Yrotation Xrotation Zrotation
					End Site
					{
						OFFSET -0.000001 5.044994 -1.291870
					}
				}
			}
		}
	}
	JOINT LeftHip
	{
		OFFSET -9.469263 0.004641 0.045487
		CHANNELS 3 Yrotation Xrotation Zrotation
		JOINT LeftKnee
		{
			OFFSET 0.000000 0.002661 -40.478676
			CHANNELS 3 Yrotation Xrotation Zrotation
			JOINT LeftAnkle
			{
				OFFSET 0.000000 0.049106 -35.224068
				CHANNELS 3 Yrotation Xrotation Zrotation
				JOINT LeftToe
				{
					OFFSET -0.000001 12.539529 -6.151390
					CHANNELS 3 Yrotation Xrotation Zrotation
					End Site
					{
						OFFSET -0.000001 5.044994 -1.291870
					}
				}
			}
		}
	}
}
MOTION
Frames: 11
Frame Time: 0.016667
81.470894 -20.953081 81.621521 -5.671980 0.464412 -97.050889 -2.071318 -3.556728 -0.367369 -0.858136 -1.600317 -0.141499 -0.858136 -1.600317 -0.141500 -0.643930 -1.200042 -0.108366 4.808136 -19.335716 -8.719782 6.045064 0.342385 -14.425911 8.329936 0.615033 -2.405106 47.318284 -17.966889 -5.217174 19.380744 -36.277498 39.088971 -26.226700 39.104944 67.858086 -7.444739 2.421240 -3.672000 -43.734507 -8.033044 7.846565 -36.801643 -54.768405 -17.559619 15.302819 14.700353 -56.986406 -13.922672 7.535326 -29.266811 -2.002391 -3.170450 -22.719550 7.772399 -17.901922 12.039438 -0.452105 0.252516 -0.531200 -10.082924 -11.300874 -3.909325 -1.259401 -3.459488 8.221031 7.823294 8.458671 10.774179 0.204508 0.271092 0.140857 
81.416573 -20.836565 81.616669 -5.692111 0.454676 -97.077629 -2.044802 -3.614574 -0.395189 -0.854173 -1.614044 -0.135434 -0.854173 -1.614045 -0.135434 -0.640946 -1.210346 -0.103826 4.796924 -19.317561 -8.706050 6.027467 0.375486 -14.404522 8.343418 0.612172 -2.413327 47.271879 -17.988287 -5.170281 19.377054 -36.299997 39.156522 -26.230909 39.126950 67.866098 -7.425585 2.404273 -3.681194 -43.735682 -8.042648 7.805650 -36.771167 -54.780289 -17.576822 15.311980 14.706622 -57.006883 -14.113771 7.574736 -28.842403 -1.846468 -3.302248 -22.887991 7.973280 -18.026462 11.833882 -0.522841 0.284106 -0.543181 -10.144970 -11.252110 -3.796279 -1.284437 -3.484594 8.284478 7.879095 8.417664 10.619599 0.187859 0.291102 0.151237 
81.361053 -20.736195 81.617088 -5.720732 0.422602 -97.089746 -2.002661 -3.683087 -0.438200 -0.843998 -1.625612 -0.131643 -0.843997 -1.625612 -0.131643 -0.633306 -1.219030 -0.100971 4.788267 -19.308409 -8.691031 6.015636 0.392168 -14.379894 8.356191 0.612909 -2.418709 47.215308 -17.998863 -5.142068 19.357055 -36.327782 39.245990 -26.239526 39.154821 67.886589 -7.421004 2.409894 -3.686569 -43.736590 -8.080936 7.774903 -36.759354 -54.784442 -17.571544 15.323067 14.697169 -57.011388 -14.290590 7.593605 -28.444070 -1.665219 -3.436454 -23.038759 8.167003 -18.159243 11.645431 -0.584039 0.329423 -0.529708 -10.174141 -11.209963 -3.652839 -1.318434 -3.514095 8.351815 7.941505 8.399107 10.476470 0.168994 0.294257 0.161196 
81.280342 -20.646618 81.620628 -5.728342 0.382817 -97.115700 -1.956781 -3.719273 -0.468069 -0.828611 -1.636316 -0.132001 -0.828611 -1.636316 -0.132000 -0.621770 -1.227061 -0.101214 4.781158 -19.309664 -8.674424 6.007942 0.389763 -14.351774 8.363859 0.605718 -2.422944 47.149766 -18.009080 -5.128186 19.336382 -36.350677 39.357148 -26.249633 39.184338 67.896001 -7.427013 2.399409 -3.694024 -43.744920 -8.101795 7.743805 -36.740783 -54.795005 -17.554025 15.323352 14.679301 -57.007819 -14.480276 7.625193 -27.998962 -1.509009 -3.581533 -23.153931 8.416382 -18.347497 11.703868 -0.623132 0.399883 -0.504355 -10.188208 -11.133472 -3.530608 -1.332223 -3.549584 8.372822 8.015621 8.350763 10.321118 0.131364 0.303632 0.163196 
81.169479 -20.599054 81.625595 -5.738746 0.310019 -97.147536 -1.878274 -3.762175 -0.491086 -0.811711 -1.650324 -0.140248 -0.811711 -1.650324 -0.140248 -0.609120 -1.237560 -0.107370 4.772858 -19.305506 -8.652041 5.999451 0.397415 -14.313517 8.363673 0.609614 -2.425557 47.081655 -18.024586 -5.121201 19.324132 -36.351493 39.478510 -26.260578 39.189276 67.891848 -7.435709 2.397999 -3.692121 -43.768392 -8.120325 7.726342 -36.693094 -54.813941 -17.547787 15.321769 14.671496 -57.020024 -14.725422 7.615114 -27.488940 -1.356255 -3.779452 -23.102145 8.775343 -18.508120 11.788470 -0.583636 0.462177 -0.358034 -10.162083 -11.037052 -3.454003 -1.328369 -3.597980 8.328052 8.120560 8.324476 10.349938 0.072946 0.255645 0.148116 
80.984993 -20.620600 81.632370 -5.694320 0.212649 -97.226138 -1.781722 -3.766979 -0.462304 -0.792024 -1.664512 -0.152237 -0.792024 -1.664512 -0.152237 -0.594391 -1.248189 -0.116327 4.768190 -19.287662 -8.630287 5.996326 0.430679 -14.275381 8.356941 0.630907 -2.433314 47.034954 -18.019152 -5.143816 19.269270 -36.355847 39.637087 -26.259839 39.181858 67.888474 -7.437978 2.380708 -3.711970 -43.788039 -8.116701 7.718339 -36.644026 -54.822332 -17.553955 15.335183 14.648589 -57.026025 -15.033011 7.601887 -26.835482 -1.207001 -3.998213 -22.839601 9.302171 -18.618628 11.802010 -0.473944 0.496392 -0.131214 -10.056385 -10.840374 -3.374460 -1.329522 -3.654440 8.318366 8.216042 8.311025 10.465997 -0.003851 0.154223 0.110082 
80.756897 -20.675634 81.647125 -5.639049 0.107200 -97.306317 -1.694348 -3.772944 -0.418242 -0.765284 -1.677684 -0.163040 -0.765284 -1.677684 -0.163043 -0.574369 -1.258061 -0.124372 4.765999 -19.258748 -8.616316 5.994445 0.484408 -14.250786 8.358622 0.645111 -2.438023 46.991189 -17.961227 -5.182619 19.182735 -36.379025 39.821062 -26.245734 39.174977 67.895625 -7.445094 2.356984 -3.736466 -43.808857 -8.125938 7.705425 -36.563816 -54.819621 -17.576416 15.352606 14.620611 -57.019075 -15.328676 7.544868 -26.077109 -1.075231 -4.234448 -22.432650 9.981539 -18.615383 11.907592 -0.371017 0.488317 0.025581 -9.902258 -10.600765 -3.295447 -1.334801 -3.725498 8.346903 8.273899 8.265111 10.458418 -0.072377 0.064795 0.067209 
80.528679 -20.722569 81.672424 -5.598704 0.005741 -97.367072 -1.624528 -3.806776 -0.398377 -0.729079 -1.694271 -0.175506 -0.729079 -1.694271 -0.175507 -0.547256 -1.270497 -0.133644 4.757469 -19.213056 -8.598947 5.980777 0.568801 -14.222155 8.352676 0.670568 -2.424968 46.931900 -17.893919 -5.212482 19.093157 -36.411988 40.028730 -26.231026 39.178348 67.900680 -7.476581 2.382425 -3.744343 -43.835136 -8.153905 7.714553 -36.477038 -54.811568 -17.580692 15.358565 14.602770 -57.015175 -15.625118 7.459933 -25.237938 -0.934471 -4.526251 -21.904797 10.760251 -18.553000 12.207132 -0.301397 0.507729 0.103436 -9.761612 -10.370117 -3.227280 -1.336116 -3.795948 8.368314 8.318774 8.155768 10.456136 -0.121730 0.024145 0.031385 
80.321281 -20.732300 81.705353 -5.567142 -0.096238 -97.415279 -1.564961 -3.843542 -0.380521 -0.690564 -1.711167 -0.184369 -0.690564 -1.711168 -0.184369 -0.518401 -1.283169 -0.140200 4.751452 -19.162085 -8.588323 5.969188 0.662972 -14.205125 8.364274 0.721789 -2.423208 46.857833 -17.859592 -5.258023 19.018850 -36.445900 40.235678 -26.216067 39.189286 67.917188 -7.491978 2.401006 -3.760600 -43.889891 -8.151777 7.719756 -36.402456 -54.813289 -17.538693 15.344011 14.597812 -57.017518 -15.928015 7.380488 -24.304402 -0.783417 -4.868227 -21.268313 11.623446 -18.464559 12.678896 -0.266601 0.558311 0.138912 -9.652025 -10.160167 -3.169512 -1.315217 -3.861843 8.391126 8.357445 8.017658 10.524164 -0.156679 0.010313 0.000679 
80.147202 -20.712978 81.745705 -5.541008 -0.225738 -97.461513 -1.489012 -3.887755 -0.365763 -0.649890 -1.728503 -0.188227 -0.649891 -1.728504 -0.188226 -0.487914 -1.296179 -0.142997 4.747902 -19.104220 -8.581374 5.960430 0.769987 -14.194103 8.369811 0.741982 -2.428989 46.777507 -17.821200 -5.272483 18.968516 -36.478213 40.438497 -26.200636 39.203203 67.932276 -7.490992 2.415129 -3.763716 -43.966003 -8.144394 7.715992 -36.342682 -54.802262 -17.482506 15.339389 14.583419 -57.015861 -16.151818 7.264243 -23.299713 -0.679225 -5.150046 -20.536501 12.554916 -18.383994 13.216757 -0.257635 0.626583 0.153162 -9.550578 -9.992644 -3.092647 -1.291891 -3.902877 8.453205 8.402278 7.879318 10.526536 -0.173187 0.011202 -0.020456 
80.018303 -20.654650 81.788597 -5.510956 -0.373830 -97.510492 -1.399280 -3.936261 -0.355811 -0.608166 -1.743742 -0.188058 -0.608167 -1.743743 -0.188059 -0.456626 -1.307621 -0.142769 4.744151 -19.039255 -8.575199 5.950521 0.890128 -14.184645 8.360500 0.758805 -2.433914 46.705663 -17.811429 -5.269146 18.926700 -36.503803 40.638201 -26.190352 39.223024 67.941128 -7.488508 2.405443 -3.774747 -44.037723 -8.128413 7.714183 -36.262191 -54.771325 -17.472964 15.352208 14.557300 -56.984968 -16.310944 7.104094 -22.301162 -0.651224 -5.403874 -19.675139 13.491461 -18.304062 13.916456 -0.211077 0.737805 0.147242 -9.440208 -9.869341 -2.954551 -1.269162 -3.915399 8.528650 8.422719 7.758735 10.351492 -0.164947 0.021846 -0.034301 
